HIERARCHY
ROOT Hips
{
	OFFSET 0.0000 0.0000 0.0000
	CHANNELS 6 Xposition Yposition Zposition Zrotation Xrotation Yrotation
	JOINT Spine1
	{
		OFFSET -0.0137 5.0038 -0.0537
		CHANNELS 3 Zrotation Xrotation Yrotation
		JOINT Spine2
		{
			OFFSET -0.0000 7.1253 -0.0298
			CHANNELS 3 Zrotation Xrotation Yrotation
			JOINT Chest
			{
				OFFSET -0.0000 7.5501 -0.8160
				CHANNELS 3 Zrotation Xrotation Yrotation
				JOINT Neck1
				{
					OFFSET -0.1817 26.3113 -0.5533
					CHANNELS 3 Zrotation Xrotation Yrotation
					JOINT Neck2
					{
						OFFSET -0.0000 7.7094 2.3026
						CHANNELS 3 Zrotation Xrotation Yrotation
						JOINT Head
						{
							OFFSET -0.0000 6.1289 1.9537
							CHANNELS 3 Zrotation Xrotation Yrotation
							JOINT Jaw
							{
								OFFSET 0.0026 0.4756 3.0949
								CHANNELS 3 Zrotation Xrotation Yrotation
								End Site
								{
									OFFSET 0.0 1.0 0.0
								}
							}
							JOINT LeftEye
							{
								OFFSET 3.2064 5.3802 7.5869
								CHANNELS 3 Zrotation Xrotation Yrotation
								End Site
								{
									OFFSET 0.0 1.0 0.0
								}
							}
							JOINT RightEye
							{
								OFFSET -3.2224 5.3619 7.5582
								CHANNELS 3 Zrotation Xrotation Yrotation
								End Site
								{
									OFFSET 0.0 1.0 0.0
								}
							}
						}
					}
				}
				JOINT LeftShoulder
				{
					OFFSET 1.6217 23.2372 5.1134
					CHANNELS 3 Zrotation Xrotation Yrotation
					JOINT LeftArm
					{
						OFFSET 14.9198 0.0000 -5.5023
						CHANNELS 3 Zrotation Xrotation Yrotation
						JOINT LeftForeArm
						{
							OFFSET 28.7393 0.0000 -0.0026
							CHANNELS 3 Zrotation Xrotation Yrotation
							JOINT LeftHand
							{
								OFFSET 27.0940 -0.0000 0.0026
								CHANNELS 3 Zrotation Xrotation Yrotation
								JOINT LeftHandThumbEnd
								{
									OFFSET 12.2686 -3.2202 4.8331
									CHANNELS 3 Zrotation Xrotation Yrotation
									End Site
									{
										OFFSET 0.0 1.0 0.0
									}
								}
								JOINT LeftHandMiddleEnd
								{
									OFFSET 19.0120 -0.3129 -0.0340
									CHANNELS 3 Zrotation Xrotation Yrotation
									End Site
									{
										OFFSET 0.0 1.0 0.0
									}
								}
							}
						}
					}
				}
				JOINT RightShoulder
				{
					OFFSET -1.3801 23.1803 5.2142
					CHANNELS 3 Zrotation Xrotation Yrotation
					JOINT RightArm
					{
						OFFSET -15.0372 0.0000 -5.5456
						CHANNELS 3 Zrotation Xrotation Yrotation
						JOINT RightForeArm
						{
							OFFSET -28.7366 0.0000 -0.0026
							CHANNELS 3 Zrotation Xrotation Yrotation
							JOINT RightHand
							{
								OFFSET -27.1336 -0.0000 0.0026
								CHANNELS 3 Zrotation Xrotation Yrotation
								JOINT RightHandThumbEnd
								{
									OFFSET -12.2642 -3.2115 4.8040
									CHANNELS 3 Zrotation Xrotation Yrotation
									End Site
									{
										OFFSET 0.0 1.0 0.0
									}
								}
								JOINT RightHandMiddleEnd
								{
									OFFSET -19.0006 -0.3066 -0.0316
									CHANNELS 3 Zrotation Xrotation Yrotation
									End Site
									{
										OFFSET 0.0 1.0 0.0
									}
								}
							}
						}
					}
				}
			}
		}
	}
	JOINT LeftLeg
	{
		OFFSET 10.0432 -8.4345 2.5957
		CHANNELS 3 Zrotation Xrotation Yrotation
		JOINT LeftShin
		{
			OFFSET -0.0000 -43.2218 -0.8029
			CHANNELS 3 Zrotation Xrotation Yrotation
			JOINT LeftFoot
			{
				OFFSET 0.0000 -42.1551 -3.4815
				CHANNELS 3 Zrotation Xrotation Yrotation
				JOINT LeftToeBase
				{
					OFFSET 0.0000 -5.0595 13.2315
					CHANNELS 3 Zrotation Xrotation Yrotation
					End Site
					{
						OFFSET 0.0 1.0 0.0
					}
				}
			}
		}
	}
	JOINT RightLeg
	{
		OFFSET -10.0473 -8.2953 2.6203
		CHANNELS 3 Zrotation Xrotation Yrotation
		JOINT RightShin
		{
			OFFSET 0.0000 -43.3622 -0.8056
			CHANNELS 3 Zrotation Xrotation Yrotation
			JOINT RightFoot
			{
				OFFSET 0.0000 -42.1174 -3.4784
				CHANNELS 3 Zrotation Xrotation Yrotation
				JOINT RightToeBase
				{
					OFFSET -0.0000 -5.0796 13.2842
					CHANNELS 3 Zrotation Xrotation Yrotation
					End Site
					{
						OFFSET 0.0 1.0 0.0
					}
				}
			}
		}
	}
}
MOTION
Frames: 5
Frame Time: 0.033333
-1.8430 95.1881 16.7008 1.1001 -5.3587 -10.7501 -1.8063 -3.2131 0.2969 -0.7475 -6.0440 1.1543 3.8200 5.5144 0.2516 -14.4353 11.9116 10.4796 4.7965 -3.9659 15.1785 -0.2472 2.1656 19.0336 0.0326 -0.0468 -0.1192 0.8199 -10.7375 -3.9767 -0.7663 -10.8115 3.7615 7.6600 8.5267 -1.8277 -0.1990 -27.6087 10.9541 -2.2625 -0.3285 -37.0285 -5.5217 -36.7644 49.2551 -15.1125 10.0579 14.8612 -60.4242 1.7245 2.2694 0.4440 10.7017 8.9568 25.8665 22.5832 49.1387 -2.7245 3.0575 118.2597 -3.5721 43.3879 -15.2720 15.9722 7.5280 -16.6891 51.2537 -3.3549 -5.5996 11.3257 -4.2938 17.0873 -0.0716 27.0441 -0.4349 -13.0061 -15.0090 3.4155 1.6524 -0.3542 -2.1919 -16.0224 -8.7566 -11.0330 0.2311 27.5031 0.7004 17.4926 -12.9954 -7.5205 -1.3937 -0.8173 0.9847
-2.1405 95.9006 15.4620 1.4546 -3.0476 -10.2755 -1.5588 -2.5472 0.1315 -0.6901 -5.7738 1.0374 3.8411 5.4225 0.0491 -14.3090 9.6363 9.7814 4.8506 -3.9189 15.5953 -1.6092 -0.4483 19.7107 0.0248 -0.0163 -0.0838 0.8258 -10.7398 -3.9527 -0.7867 -10.8201 3.8132 7.3709 9.3381 -2.3175 -6.7223 -24.7421 17.2054 -3.3734 -1.5748 -45.3742 -9.4249 -44.4443 54.6549 -15.0925 10.0032 14.8438 -60.7409 1.6979 2.2658 0.2908 10.9522 8.5274 28.2297 21.9920 50.6135 -2.1783 2.8530 116.7447 -5.2431 45.9407 -15.9395 16.1679 7.5377 -16.7501 51.3474 -3.4120 -5.6738 10.1737 -6.3862 16.6793 -0.0783 24.7191 -0.4299 -12.6705 -12.6587 3.2515 1.6472 -0.6924 -2.1910 -15.3307 -11.3988 -11.4052 0.2154 26.2588 0.7033 16.9658 -11.3448 -7.7139 -1.3964 -1.0238 0.9839
-2.5191 96.5062 13.9948 1.7950 -0.6973 -9.5973 -1.2951 -1.7025 -0.0310 -0.6277 -5.4607 0.9650 3.8101 5.5959 -0.0919 -14.1392 7.1385 9.0453 4.8091 -3.8434 15.9812 -3.0645 -3.4238 20.4069 0.0235 0.0218 -0.0527 0.8368 -10.7353 -3.9352 -0.7986 -10.8127 3.8592 7.1288 10.1901 -2.9458 -14.0668 -20.1186 22.3851 -3.0103 -2.7566 -54.8230 -13.7278 -50.7785 60.6546 -15.2603 10.0498 14.9993 -61.2257 1.6911 2.2578 0.1014 11.2768 8.3598 31.0465 20.9119 51.4920 -1.4335 2.6608 114.7745 -7.9238 48.7869 -17.3183 16.3244 7.5191 -16.7852 51.4154 -3.4475 -5.7265 9.0685 -8.9903 16.3828 -0.1106 22.9534 -0.4778 -12.1682 -10.3524 2.8244 1.6431 -1.0415 -2.1903 -14.5443 -14.3934 -11.9103 0.1931 25.4910 0.6504 16.4396 -9.7981 -7.8361 -1.4034 -1.2793 0.9850
-2.9114 96.8445 12.3544 2.3130 1.4695 -8.7104 -1.0715 -0.5628 -0.1835 -0.5573 -5.0710 0.8764 3.6684 6.0816 -0.2585 -14.0360 4.6890 8.4632 4.6205 -3.7786 16.0887 -4.6728 -6.4912 21.1112 0.0273 0.0564 -0.0235 0.8416 -10.7193 -3.9185 -0.7946 -10.7901 3.9000 7.0513 11.2195 -3.8310 -21.5653 -14.2863 25.0961 -1.6718 -3.2652 -63.8507 -19.6781 -56.3247 67.5839 -15.4348 10.0851 15.3293 -61.4277 1.7035 2.2769 -0.2660 11.5873 8.3923 33.8403 19.2520 51.8029 -0.5273 2.4636 112.5522 -11.6159 51.7353 -19.6770 16.4045 7.4612 -16.7903 51.3403 -3.4596 -5.7842 7.8870 -12.0029 16.2127 -0.1517 22.1025 -0.5371 -11.7143 -8.4003 2.1183 1.6381 -1.3213 -2.2026 -13.9954 -17.9201 -12.5887 0.1874 25.8617 0.5755 15.9917 -8.7649 -7.7432 -1.4131 -1.4930 0.9787
-3.2810 96.7951 10.6329 3.0876 3.1824 -7.7288 -0.8870 0.8806 -0.2788 -0.4580 -4.6443 0.6843 3.3800 6.9230 -0.5269 -14.1110 2.7492 8.1078 4.3333 -3.7324 15.7826 -6.4747 -9.2107 21.7829 0.0336 0.0799 -0.0015 0.8479 -10.7014 -3.9075 -0.7876 -10.7611 3.9342 7.1210 12.4275 -4.9395 -28.5188 -8.9758 24.9062 -0.4412 -3.0490 -71.2086 -28.6502 -62.0993 76.3916 -15.5891 9.9697 15.5741 -61.0064 1.7137 2.3056 -0.8390 11.9670 8.5885 35.9189 17.0572 51.5804 0.2215 2.3340 110.5257 -16.0373 54.1412 -22.9960 16.4602 7.3806 -16.7783 51.2804 -3.4479 -5.8140 6.5998 -15.1280 16.1687 -0.1955 22.3916 -0.5605 -11.5061 -7.1781 1.3483 1.6280 -1.4454 -2.2361 -13.8793 -21.8785 -13.3634 0.2129 27.7167 0.5184 15.6832 -8.6179 -7.2901 -1.4219 -1.6623 0.9740
